<svg xmlns="http://www.w3.org/2000/svg" viewBox="0 0 100 100" fill="none">
  <defs>
    <!-- Main vertical stem gradient: deep rich purple transition to bright white-violet -->
    <linearGradient id="kronStemGrad" x1="0%" y1="0%" x2="100%" y2="100%">
      <stop offset="0%" stopColor="#7c3aed" />
      <stop offset="50%" stopColor="#a855f7" />
      <stop offset="100%" stopColor="#e9d5ff" />
    </linearGradient>

    <!-- Upper branch: premium cosmic purple to icy white -->
    <linearGradient id="kronUpperGrad" x1="0%" y1="0%" x2="100%" y2="100%">
      <stop offset="0%" stopColor="#a855f7" />
      <stop offset="100%" stopColor="#ffffff" />
    </linearGradient>

    <!-- Lower branch: crystal frosted white to glass translucency -->
    <linearGradient id="kronLowerGrad" x1="0%" y1="0%" x2="100%" y2="100%">
      <stop offset="0%" stopColor="#ffffff" stopOpacity="0.85" />
      <stop offset="100%" stopColor="#c084fc" stopOpacity="0.4" />
    </linearGradient>

    <!-- Frosted Glass Overlay Overlay Gradient -->
    <linearGradient id="kronGlassOverlay" x1="0%" y1="0%" x2="100%" y2="100%">
      <stop offset="0%" stopColor="#ffffff" stopOpacity="0.35" />
      <stop offset="100%" stopColor="#ffffff" stopOpacity="0.02" />
    </linearGradient>

    <!-- Outer stroke border for frosted realism -->
    <linearGradient id="kronGlassBorder" x1="0%" y1="0%" x2="100%" y2="100%">
      <stop offset="0%" stopColor="#ffffff" stopOpacity="0.65" />
      <stop offset="40%" stopColor="#e9d5ff" stopOpacity="0.2" />
      <stop offset="100%" stopColor="#ffffff" stopOpacity="0.05" />
    </linearGradient>

    <!-- Subtle drop shadow drop key for glass dimensions -->
    <filter id="glassDepthShadow" x="-10%" y="-10%" width="130%" height="130%">
      <feDropShadow dx="1" dy="2" stdDeviation="2.5" floodColor="#4b1d95" floodOpacity="0.12" />
    </filter>
  </defs>

  <!-- 1. LAYER ONE: Elegant solid vertical pillar (The backbone of trust & structure) -->
  <rect
    x="18"
    y="14"
    width="13"
    height="72"
    rx="6.5"
    fill="url(#kronStemGrad)"
  />

  <!-- 2. LAYER TWO: Upper branch (Linear-inspired forward thrust) -->
  <path
    d="M 28 47.5 L 61.5 14 C 64 11.5, 68 11.5, 70.5 14 C 73 16.5, 73 20.5, 70.5 23 L 41 52.5 Z"
    fill="url(#kronUpperGrad)"
  />

  <!-- 3. LAYER THREE: Lower branch (Stable geometric anchor) -->
  <path
    d="M 33 50.5 L 65 82.5 C 67.5 85, 71.5 85, 74 82.5 C 76.5 80, 76.5 76, 74 73.5 L 45 44.5 Z"
    fill="url(#kronLowerGrad)"
  />

  <!-- 4. LAYER FOUR: Semi-transparent frosted-glass ribbon overlay (Completing the geometric 'K' folds) -->
  <path
    d="M 31 42 L 56 17 C 58.5 14.5, 62.5 14.5, 65 17 C 67.5 19.5, 67.5 23.5, 65 26 L 43 48 C 39 52, 34 52, 30.5 48.5 L 24.5 42.5 C 22.5 40.5, 22.5 37.5, 24.5 35.5 C 26.5 33.5, 29.5 33.5, 31.5 35.5 Z"
    fill="url(#kronGlassOverlay)"
    stroke="url(#kronGlassBorder)"
    strokeWidth="1.2"
    filter="url(#glassDepthShadow)"
    style="mix-blend-mode: normal"
  />
</svg>
